<?xml version="1.0" encoding="UTF-8"?><svg id="a" xmlns="http://www.w3.org/2000/svg" viewBox="0 0 300.16 77.43"><defs><style>.b{fill:#231815;}</style></defs><path class="b" d="M6.33,60.72c-.38-2.36,0-4.25,1.13-5.67,1.51-1.79,3.78-1.79,3.87-1.79H30.79c0-1.42,.19-2.64,.19-4.34-5.76,0-19.93-.19-25.22-.57-1.98-.19-2.93-.28-4.53-1.79-.85-.76-1.23-1.98-1.23-3.31,0-1.23,.47-2.46,1.23-3.21,1.89-1.98,6.52-1.89,6.71-1.89H61.96c1.89,0,3.78,0,5.57,.09,1.7,.09,3.59,.38,4.91,1.61,1.32,1.04,1.32,2.27,1.32,3.78,0,1.89-1.13,3.31-3.02,3.97-2.55,.94-5.67,1.04-8.31,1.13-6.23,.19-12.09,.38-18.42,.38-.09,1.61-.19,2.74-.28,4.16h14.26s.28-.09,.66-.09c5.1,0,8.12,1.7,8.12,4.63v6.42c0,.66,.09,1.32,.09,1.98,0,1.32,.09,5.38-.09,6.8-.19,2.64-2.27,4.44-5.1,4.44-.66,0-1.32-.09-1.98-.28-3.4-1.04-3.59-4.16-3.68-6.99-.09-1.13-.19-4.82-.38-5.76-.38-.09-1.7-.28-6.33-.28-4.06,0-7.18,.09-7.18,.09H10.58c-.19,0-3.87-.85-4.25-3.49Zm-.47-37.02V5.75C5.86,3.39,6.99,.55,9.73,.18c2.64-.38,6.23,.76,6.8,3.78,.19,1.13-.19,5.57,.28,6.71,.28,.66,1.61,.38,2.17,.47,2.93,.19,5.86-.09,8.88-.09h26.07c.47,0,.85,0,1.32,.09,1.32,.09,1.7-.09,2.93-.28,.28-.94,.19-4.82,.19-5.86,.09-2.27,.85-4.34,3.12-4.82,4.44-.85,7.27,1.42,7.18,5.95-.09,5.67,.28,14.73-.19,20.5-.19,1.7-.76,2.64-1.7,4.16-1.89,2.83-7.08,2.36-10.01,2.46-4.06,.19-5.2,0-9.26,0-6.04,0-9.44,.09-15.58,0-2.17,0-4.34,.19-6.42,.19-3.02-.09-5.95-.09-8.97,0-2.64,0-5.48-.19-7.65-1.79-2.83-2.17-3.02-7.65-3.02-7.93Zm16.81,1.04c3.49,0,6.99,.09,10.39,.09,4.72,.09,6.8,0,11.52-.09,1.23-.09,2.55,0,3.87,0,.94,0,1.98-.19,2.93-.09,1.04,.19,2.08,.09,3.12,.09,1.32,.19,3.68,.66,3.68-1.42,0-.94,.38-1.7-.38-2.55-.94-1.04-2.17-.94-3.4-.85h-14.17c-.85,0-13.6-.09-14.36-.09-2.36-.09-9.35-1.23-9.26,2.46,0,.57,.09,.47,.19,.85,.57,2.17,4.25,1.61,5.86,1.61Z"/><path class="b" d="M143.47,58.92c2.08,.19,3.97,.66,5.67,2.17,.85,.85,1.32,1.98,1.32,3.31s-.47,3.21-1.23,4.06c-1.98,1.98-6.61,1.79-6.8,1.79h-52.89c-.57,0-1.23,.09-1.89,.09-2.64,.09-6.04,.28-8.12-1.51-1.23-1.13-1.98-2.55-1.98-4.06,0-1.89,1.23-4.25,3.12-5.01,2.55-.94,5.29-.76,8.03-.85h.47c4.16-.09,8.69-.09,13.13-.09l-.09-11.71s0-3.21,2.55-5.01c3.21-2.36,10.11-.76,10.11,3.87l.09,12.94h2.55c7.84,0,11.52-.19,18.42,0,2.27,.09,4.44-.19,6.42,0,.38,.09,.76,0,1.13,0ZM87.55,14.72c-2.36-.28-4.34-2.93-4.25-6.23,0-2.83,2.55-4.25,4.82-4.91,2.74-.76,5.29-.76,8.12-.85h5.29l21.91-.09c.76,0,1.61-.09,2.36,0h2.74c1.23,0,2.36,.09,3.59,.09,1.13,0,2.27,0,3.49,.09,.47,0,1.13,0,1.7,.19,.28,.09,.66,.28,.94,.38,1.23,.57,2.27,1.42,3.02,2.64,1.13,1.89,1.42,4.25,1.42,6.42,0,5.95,.28,14.64,0,20.59-.19,3.59-.09,12.84-1.89,16.06-2.08,3.68-7.93,4.82-10.2,1.04-2.36-3.87-1.32-10.96-1.23-15.49h-36.55c-2.64,0-5.95-1.04-6.99-2.83-.38-.76-.76-1.42-.76-2.55s.28-2.27,.76-2.93c1.23-2.08,4.53-2.64,6.89-2.74,8.69-.47,28.71-.76,36.65-.57,0-2.46,0-5.19-.19-7.65-4.25-.09-24.93,.09-29.28,.09-4.06,0-7.65-.19-12.37-.76Z"/><path class="b" d="M209.96,33.61v8.59c-.09,1.32-.28,2.83-1.04,4.25-.47,.76-.94,1.42-1.61,1.79-.94,.66-1.42,1.04-2.45,1.04-.94,0-1.89-.28-2.65-.76-2.55-1.51-2.93-4.91-2.93-5.01v-15.77h-2.08c-1.79,.09-4.16,.09-5.76-1.51l-.09,7.56c0,2.64-.47,6.61-3.49,7.75-3.31,1.32-6.8,.94-10.2,.94-1.79,.19-7.37-.09-9.44,0h-.09c-4.44,0-9.16,.09-11.15-2.83-2.17-3.31-1.7-10.77-1.7-11.05,0,0,0-5.01,.09-9.26,.09-4.53,.09-7.27,.09-7.27,0-.76,0-4.44,.94-5.95,1.13-1.79,2.17-2.46,4.06-2.83,1.42-.19,5.29-.38,5.29-.38h14.73c2.74,0,5.95,.28,8.31,1.79,3.68,2.36,2.74,7.18,2.74,10.77l-.09,3.21c.57-.47,1.42-.76,2.55-1.04,.66-.19,3.31-.28,5.29-.38V7.64c-.09-.57,.09-3.4,.76-4.91,.66-1.23,2.08-2.08,3.87-2.27,2.08-.28,3.49,.28,4.44,1.42,.85,.94,.94,1.89,1.32,2.93,.38,1.23,.19,2.74,.19,4.06l.09,24.74Zm14.36,40.23c-1.51,1.79-3.78,1.89-3.87,1.89h-47.22c-5.1,0-9.54-1.7-9.54-4.53v-13.41c-.09-1.42-.09-2.83,0-4.25,.28-2.64,2.27-4.44,5.1-4.44,.66,0,2.74,.09,3.4,.38,3.31,.94,3.5,4.16,3.68,6.99,.09,1.13,.19,7.18,.38,8.03,.38,.09,1.7,.38,6.33,.38,4.06,0,4.44-.19,4.53-.19h34.19c.09,.09,3.87,.94,4.25,3.59,.28,2.36-.09,4.25-1.23,5.57ZM180.11,14.53c-.47-1.32-1.79-1.32-2.93-1.32l-5.19-.19c-1.13,0-1.89,0-2.64,.19-1.04,.09-1.51,.38-2.17,1.13-.47,.66-.47,2.27-.47,2.55v3.02c-.09,1.79-.09,6.99-.09,6.99,0,.09-.19,3.31,.94,4.72,1.04,1.23,1.7,1.23,3.97,1.23l5.67,.09c2.46,0,2.46-.94,2.74-2.83,.28-1.32,.19-10.77,.38-12.56-.09-.94,.09-2.08-.19-3.02Zm34.38-10.11c.38-1.04,.85-1.89,1.7-2.83,1.04-1.23,2.36-1.79,4.44-1.51,1.79,.28,2.93,1.23,3.5,2.46,.75,1.51,.75,4.16,.66,4.72V43.62c0,.19-.09,3.59-2.55,5.1-.85,.47-1.32,.66-2.27,.66-1.13,0-2.17-.38-3.12-.94-.66-.47-1.13-1.13-1.61-1.89-1.89-3.49-1.13-8.03-1.13-11.9,0-.38,0-25.5,.09-26.16,0-1.32-.09-2.83,.28-4.06Z"/><path class="b" d="M230.36,63.64c0-1.32,.47-2.46,1.23-3.31,1.98-1.98,6.61-1.89,6.8-1.89l51.66,.09c3.21,0,6.04-.38,8.12,1.42,1.23,1.13,1.98,2.55,1.98,4.06,0,1.89-1.23,3.59-3.12,4.25-2.55,.94-5.29,1.32-7.93,1.42-9.16,.38-18.23,.09-26.63,.09-9.07,0-18.32,.28-23.99,0-3.97-.38-8.12-1.23-8.12-6.14Zm63.56-23.61c.28,1.32-.09,2.74-.94,3.78-3.4,4.34-10.39,3.97-15.39,3.97-10.01,0-20.5,.28-30.6,.09-3.59,0-7.84-.57-9.63-4.16-2.17-4.44-1.61-12.28-1.61-17.09v-9.16c-.09-.57-.76-7.27,1.13-10.2,1.6-2.64,7.27-2.83,7.93-2.83h37.78c.28,.09,8.69-.28,10.01,3.68,.38,1.42,.38,4.72-.19,5.76-.47,.85-1.98,1.42-3.02,1.7-1.13,.28-2.93,.57-5.29,.57h-2.93c-9.92-.47-15.11-.19-26.35,0-1.89,0-5.38-.66-5.95,1.32-.47,2.17-.19,5.76-.38,8.03-.09,1.7-.47,7.84,1.23,8.97,.94,.66,2.93,.47,3.97,.47,10.11,.38,20.12,0,30.03,0,3.02,0,5.57,.47,7.65,1.42,1.32,.66,2.17,2.36,2.55,3.68Z"/></svg>